# xmcd CD database file
#
# Track frame offsets:
#	150
#	15359
#	30042
#	57031
#	74811
#	102096
#	128406
#	153141
#	176246
#	207031
#	227723
#	261110
#	281478
#	299150
#	316143
#	329284
#
# Disc length: 4653 seconds
#
# Revision: 1
# Processed by: cddbd v1.5.2PL0 Copyright (c) Steve Scherf et al.
# Submitted via: CDex 1.70beta2
#
DISCID=d6122b10
DTITLE=Ketil Bjoernstadt - Devotions
DYEAR=2007
DGENRE=Jazz
TTITLE0=The window
TTITLE1=Here
TTITLE2=The moon arising
TTITLE3=The tree in the courtyard
TTITLE4=Sihoulettes
TTITLE5=I will go there
TTITLE6=The first room
TTITLE7=Confession
TTITLE8=Approaching
TTITLE9=Devotion
TTITLE10=White
TTITLE11=Red
TTITLE12=Black
TTITLE13=The inner story
TTITLE14=A sudden thought
TTITLE15=Nexus
EXTD=YEAR: 2007
EXTT0=
EXTT1=
EXTT2=
EXTT3=
EXTT4=
EXTT5=
EXTT6=
EXTT7=
EXTT8=
EXTT9=
EXTT10=
EXTT11=
EXTT12=
EXTT13=
EXTT14=
EXTT15=
PLAYORDER=
